<?xml version="1.0" encoding="UTF-8"?>
<svg width="64px" height="64px" viewBox="0 0 64 64" version="1.1" xmlns="http://www.w3.org/2000/svg" xmlns:xlink="http://www.w3.org/1999/xlink">
    <title>alarm_port_disconnected</title>
    <defs>
        <path d="M55.6666667,14.4954386 L55.6666667,48.9954386 C55.6666667,52.1643904 53.1200623,54.7333333 49.9786667,54.7333333 L13.3786667,54.7333333 C10.2106667,54.7333333 7.66666667,52.1670175 7.66666667,48.9954386 L7.66666667,14.4954386 C7.66666667,11.2996491 10.2106667,8.73333333 13.3786667,8.73333333 L49.9786667,8.73333333 C53.1226667,8.73333333 55.6666667,11.2996491 55.6666667,14.4954386 Z M23.7238095,14.9964912 L23.7238095,23.4964912 L12.8666667,23.4964912 L12.8666667,48.9964912 L18.2952381,48.9964912 L18.2952381,40.4964912 L23.7238095,40.4964912 L23.7238095,48.9964912 L29.152381,48.9964912 L29.152381,40.4964912 L34.5809524,40.4964912 L34.5809524,48.9964912 L40.0095238,48.9964912 L40.0095238,40.4964912 L45.4380952,40.4964912 L45.4380952,48.9964912 L50.8666667,48.9964912 L50.8666667,23.4964912 L40.0095238,23.4964912 L40.0095238,14.9964912 Z" id="path-1"></path>
    </defs>
    <g id="alarm_port_disconnected" stroke="none" fill="none" xlink:href="#path-1" fill-rule="evenodd" stroke-width="1">
        <g id="SVG" transform="translate(7.6667, 8.7333)" fill="#000000">
            <path d="M10.6285714,31.7631579 L16.0571429,31.7631579 L16.0571429,40.2631579 L21.4857143,40.2631579 L21.4857143,31.7631579 L26.9142857,31.7631579 L26.9142857,40.2631579 L32.3428571,40.2631579 L32.3428571,31.7631579 L37.7714286,31.7631579 L37.7714286,40.2631579 L43.2,40.2631579 L43.2,14.7631579 L32.3428571,14.7631579 L32.3428571,6.26315789 L16.0571429,6.26315789 L16.0571429,14.7631579 L5.2,14.7631579 L5.2,40.2631579 L10.6285714,40.2631579 L10.6285714,31.7631579 M5.712,0 L42.312,0 C45.456,0 48,2.56631579 48,5.76210526 L48,40.2621053 C48,43.431057 45.4533957,46 42.312,46 L5.712,46 C2.544,46 0,43.4336842 0,40.2621053 L0,5.76210526 C0,2.56631579 2.544,0 5.712,0 Z" id="Shape" fill-rule="nonzero"></path>
        </g>
    </g>
</svg>
