<?xml version="1.0" encoding="UTF-8"?>
<svg width="960px" height="960px" viewBox="0 0 960 960" version="1.1" xmlns="http://www.w3.org/2000/svg" xmlns:xlink="http://www.w3.org/1999/xlink">
    <title>16-port</title>
    <defs>
        <path d="M44,425.982171 L337,389 L914.999999,410.604287 L915,553.667558 L337,570 L44,545.398058 Z" id="path-1"></path>
    </defs>
    <g id="16-port" stroke="none" fill="none" xlink:href="#path-1">
        <path d="M337.747032,369.013957 L915.747031,390.618243 L934.999999,391.337874 L934.999999,410.604286 L935,553.667558 L935,573.110405 L915.564911,573.659579 L337.564911,589.99202 L336.444001,590.023694 L335.326575,589.929868 L42.3265752,565.327927 L24,563.789123 L24,408.347868 L41.4954909,406.139604 L334.495491,369.157434 L336.115405,368.95297 Z" id="Combined-Shape" stroke="#000000" stroke-width="40" stroke-linejoin="round"></path>
        <line x1="125.557314" y1="439.850471" x2="125.557314" y2="528.933377" id="Path-11" stroke="#000000" stroke-width="20" stroke-linecap="round" stroke-linejoin="round"></line>
        <line x1="157.223981" y1="436.097268" x2="157.223981" y2="529.066835" id="Path-11" stroke="#000000" stroke-width="20" stroke-linecap="round" stroke-linejoin="round"></line>
        <line x1="188.890648" y1="432.344064" x2="188.890648" y2="529.200293" id="Path-11" stroke="#000000" stroke-width="20" stroke-linecap="round" stroke-linejoin="round"></line>
        <line x1="220.557314" y1="427.590861" x2="220.557314" y2="528.33375" id="Path-11" stroke="#000000" stroke-width="20" stroke-linecap="round" stroke-linejoin="round"></line>
        <polygon id="Rectangle" stroke="#000000" stroke-width="20" stroke-linecap="round" stroke-linejoin="round" points="368.96902 422.580517 446.96902 424.449242 446.96902 470.494091 368.96902 470.580517"></polygon>
        <g id="Group" stroke-width="1" fill-rule="evenodd" transform="translate(469.4732, 415.1727)">
            <rect id="Rectangle" fill="#000000" x="19.5267667" y="19.8272768" width="10" height="10"></rect>
            <rect id="Rectangle" fill="#000000" x="43.5267667" y="19.8272768" width="10" height="10"></rect>
            <rect id="Rectangle" fill="#000000" x="19.5267667" y="19.8272768" width="10" height="10"></rect>
            <line x1="269.690057" y1="14.341559" x2="269.771702" y2="118.136296" id="Path-496" stroke="#000000" stroke-width="20"></line>
            <line x1="370.690057" y1="12.341559" x2="370.771702" y2="116.136296" id="Path-496" stroke="#000000" stroke-width="20"></line>
            <rect id="Rectangle" fill="#000000" x="379.526767" y="29.8272768" width="8" height="8"></rect>
            <rect id="Rectangle" fill="#000000" x="401.526767" y="29.8272768" width="8" height="8"></rect>
            <line x1="63.108412" y1="15.0844179" x2="63.1900572" y2="118.879155" id="Path-496" stroke="#000000" stroke-width="20"></line>
            <line x1="320.108412" y1="14.0844179" x2="320.190057" y2="117.879155" id="Path-496" stroke="#000000" stroke-width="20"></line>
            <line x1="115.108412" y1="15.0844179" x2="115.190057" y2="118.879155" id="Path-496" stroke="#000000" stroke-width="20"></line>
            <line x1="167.108412" y1="15.0844179" x2="167.190057" y2="118.879155" id="Path-496" stroke="#000000" stroke-width="20"></line>
            <line x1="219.011277" y1="17.4077937" x2="219.092922" y2="121.202531" id="Path-496" stroke="#000000" stroke-width="20"></line>
            <path d="M419,21.8719087 L419,109.796158 L10.0000001,117.802334 L10.0000001,10.2872543 Z" id="Path-33" stroke="#000000" stroke-width="20"></path>
            <rect id="Rectangle" fill="#000000" x="176.526767" y="24.8272768" width="10" height="10"></rect>
            <rect id="Rectangle" fill="#000000" x="200.526767" y="24.8272768" width="10" height="10"></rect>
            <rect id="Rectangle" fill="#000000" x="176.526767" y="73.8272768" width="10" height="10"></rect>
            <rect id="Rectangle" fill="#000000" x="200.526767" y="73.8272768" width="10" height="10"></rect>
            <line x1="11.2475077" y1="64.4411074" x2="417.526767" y2="63.8272768" id="Path-495" stroke="#000000" stroke-width="20"></line>
            <rect id="Rectangle" fill="#000000" x="43.5267667" y="19.8272768" width="10" height="10"></rect>
            <rect id="Rectangle" fill="#000000" x="19.5267667" y="73.8272768" width="10" height="10"></rect>
            <rect id="Rectangle" fill="#000000" x="43.5267667" y="73.8272768" width="10" height="10"></rect>
            <rect id="Rectangle" fill="#000000" x="72.5267667" y="21.8272768" width="10" height="10"></rect>
            <rect id="Rectangle" fill="#000000" x="96.5267667" y="21.8272768" width="10" height="10"></rect>
            <rect id="Rectangle" fill="#000000" x="72.5267667" y="73.8272768" width="10" height="10"></rect>
            <rect id="Rectangle" fill="#000000" x="96.5267667" y="73.8272768" width="10" height="10"></rect>
            <rect id="Rectangle" fill="#000000" x="124.526767" y="21.8272768" width="10" height="10"></rect>
            <rect id="Rectangle" fill="#000000" x="147.526767" y="21.8272768" width="10" height="10"></rect>
            <rect id="Rectangle" fill="#000000" x="124.526767" y="73.8272768" width="10" height="10"></rect>
            <rect id="Rectangle" fill="#000000" x="148.526767" y="73.8272768" width="10" height="10"></rect>
            <rect id="Rectangle" fill="#000000" x="228.526767" y="73.8272768" width="10" height="10"></rect>
            <rect id="Rectangle" fill="#000000" x="252.526767" y="73.8272768" width="10" height="10"></rect>
            <rect id="Rectangle" fill="#000000" x="227.526767" y="24.8272768" width="10" height="10"></rect>
            <rect id="Rectangle" fill="#000000" x="251.526767" y="24.8272768" width="10" height="10"></rect>
            <rect id="Rectangle" fill="#000000" x="278.526767" y="73.8272768" width="10" height="10"></rect>
            <rect id="Rectangle" fill="#000000" x="301.526767" y="73.8272768" width="10" height="10"></rect>
            <rect id="Rectangle" fill="#000000" x="278.526767" y="27.8272768" width="10" height="10"></rect>
            <rect id="Rectangle" fill="#000000" x="301.526767" y="27.8272768" width="10" height="10"></rect>
            <rect id="Rectangle" fill="#000000" x="329.526767" y="27.8272768" width="10" height="10"></rect>
            <rect id="Rectangle" fill="#000000" x="352.526767" y="27.8272768" width="10" height="10"></rect>
            <rect id="Rectangle" fill="#000000" x="329.526767" y="73.8272768" width="9" height="9"></rect>
            <rect id="Rectangle" fill="#000000" x="352.526767" y="73.8272768" width="9" height="9"></rect>
            <rect id="Rectangle" fill="#000000" x="380.526767" y="73.8272768" width="8" height="8"></rect>
            <rect id="Rectangle" fill="#000000" x="401.526767" y="73.8272768" width="8" height="8"></rect>
        </g>
        <line x1="337" y1="579" x2="337" y2="380.441101" id="Path-12" stroke="#000000" stroke-width="20" stroke-linecap="round" stroke-linejoin="round"></line>
    </g>
</svg>